<svg width="45" height="42" viewBox="0 0 45 42" fill="none" xmlns="http://www.w3.org/2000/svg">
<path d="M6.31446 9.59289L0 10.9386L6.32593 12.7904C6.71941 12.9083 7.07417 13.1294 7.35329 13.4308C7.63241 13.7322 7.82572 14.1028 7.91317 14.5041L9.4889 22.0722L11.1911 14.6422C11.2909 14.2274 11.504 13.8486 11.8066 13.548C12.1092 13.2474 12.4895 13.0368 12.9049 12.9399L19.2308 11.5022L12.7208 9.67341C12.3322 9.54301 11.9855 9.31113 11.7165 9.00173C11.4476 8.69234 11.2662 8.31668 11.1911 7.91365L9.74194 0.621582L8.09721 7.86764C7.996 8.29552 7.7743 8.68544 7.45834 8.9912C7.14239 9.29697 6.74542 9.50577 6.31446 9.59289Z" fill="#0075FF"/>
<path d="M6.6553 30.1071L1 31.3123L6.6656 32.9708C7.018 33.0764 7.3357 33.2744 7.5857 33.5443C7.8357 33.8143 8.0088 34.1462 8.0871 34.5056L9.4984 41.2837L11.0229 34.6292C11.1123 34.2578 11.3031 33.9185 11.5742 33.6493C11.8452 33.3801 12.1857 33.1915 12.5578 33.1047L18.2233 31.817L12.3929 30.1792C12.0449 30.0624 11.7343 29.8547 11.4935 29.5776C11.2526 29.3005 11.0901 28.9641 11.0229 28.6031L9.725 22.0723L8.2519 28.5619C8.1613 28.9451 7.9627 29.2943 7.6798 29.5682C7.3968 29.842 7.0413 30.029 6.6553 30.1071Z" fill="#0075FF"/>
<path d="M24.6743 14.7447L15 16.8065L24.6919 19.6435C25.2947 19.8242 25.8382 20.163 26.2659 20.6247C26.6935 21.0864 26.9897 21.6542 27.1237 22.2691L29.5378 33.8641L32.1458 22.4806C32.2986 21.8452 32.6251 21.2648 33.0888 20.8042C33.5524 20.3437 34.135 20.0211 34.7714 19.8726L44.4632 17.6699L34.4894 14.8681C33.894 14.6683 33.3628 14.313 32.9507 13.839C32.5387 13.365 32.2608 12.7895 32.1458 12.172L29.9255 1L27.4056 12.1015C27.2506 12.757 26.9109 13.3544 26.4268 13.8229C25.9427 14.2914 25.3346 14.6113 24.6743 14.7447Z" fill="#0075FF"/>
</svg>
